<?xml version="1.0" standalone="no"?>
<!DOCTYPE svg PUBLIC "-//W3C//DTD SVG 20010904//EN"
 "http://www.w3.org/TR/2001/REC-SVG-20010904/DTD/svg10.dtd">
<svg version="1.0" xmlns="http://www.w3.org/2000/svg"
 width="974.000000pt" height="974.000000pt" viewBox="0 0 974.000000 974.000000"
 preserveAspectRatio="xMidYMid meet">
<metadata>
Created by potrace 1.14, written by Peter Selinger 2001-2017
</metadata>
<g transform="translate(0.000000,974.000000) scale(0.100000,-0.100000)"
fill="#000000" stroke="none">
<path d="M7560 9717 c0 -7 -6 -21 -13 -31 -12 -16 -16 -15 -70 9 -67 29 -67
29 -67 12 0 -7 -6 -21 -12 -30 -12 -15 -16 -15 -54 2 -76 35 -81 35 -92 1 -12
-33 -20 -32 -92 5 -40 21 -47 19 -59 -15 -10 -31 -11 -31 -40 -15 -30 15 -31
15 -46 -16 -9 -17 -22 -28 -28 -26 -49 20 -47 21 -74 -41 l-26 -61 -28 14
c-36 19 -35 20 -49 -16 -9 -22 -17 -28 -29 -23 -45 18 -48 16 -72 -40 -23 -56
-35 -64 -69 -46 -17 9 -22 3 -46 -50 -28 -62 -28 -63 -80 -43 -8 3 -307 -663
-321 -718 -3 -9 6 -20 21 -27 14 -6 26 -16 26 -21 0 -19 -23 -60 -31 -55 -4 2
-15 -9 -24 -26 -16 -31 -16 -31 14 -43 17 -6 31 -14 31 -18 0 -4 -29 -73 -65
-154 -36 -82 -65 -149 -65 -150 0 -2 14 -8 30 -15 17 -7 30 -14 30 -15 0 -1
-18 -43 -39 -91 l-40 -89 27 -14 c15 -7 28 -15 30 -16 2 -1 -9 -28 -23 -60
-14 -32 -25 -59 -25 -60 0 -1 14 -8 30 -15 17 -7 29 -16 28 -20 -2 -3 -32 -73
-67 -153 -68 -156 -62 -151 -117 -130 -7 2 -28 -35 -50 -87 -30 -70 -42 -89
-54 -84 -41 17 -50 16 -62 -11 -12 -26 -19 -27 -59 -11 -12 5 -20 -1 -29 -23
-10 -26 -15 -29 -37 -20 -35 13 -38 12 -52 -17 -11 -26 -20 -27 -61 -10 -11 5
-19 -3 -27 -24 -10 -27 -14 -29 -38 -20 -38 14 -42 13 -49 -16 -7 -26 -14 -27
-59 -9 -14 6 -20 1 -30 -24 -8 -22 -16 -30 -27 -25 -41 17 -50 16 -62 -11 -12
-26 -19 -27 -59 -11 -12 5 -20 -1 -29 -23 -10 -26 -15 -29 -37 -20 -35 13 -38
12 -52 -17 -8 -19 -16 -24 -29 -19 -41 17 -52 17 -52 0 0 -12 -5 -15 -22 -9
-43 13 -48 9 -87 -79 l-39 -87 28 -15 c19 -10 27 -20 24 -30 -4 -9 0 -15 7
-15 33 -1 43 -17 29 -49 -10 -25 -15 -29 -30 -21 -31 17 -40 12 -60 -35 -18
-42 -21 -44 -45 -35 -35 13 -39 10 -65 -54 -21 -54 -22 -54 -51 -44 -17 6 -32
8 -35 5 -3 -3 -50 -108 -105 -233 -54 -126 -117 -265 -139 -309 -22 -44 -42
-90 -45 -102 -2 -11 -37 -98 -78 -192 l-75 -172 30 -15 c16 -8 27 -21 25 -27
-3 -7 -20 -48 -39 -91 -21 -50 -29 -81 -22 -83 6 -2 19 -9 28 -16 15 -11 13
-21 -28 -112 -46 -104 -46 -101 -2 -130 13 -9 12 -17 -10 -69 -14 -32 -24 -59
-22 -60 2 -1 15 -7 30 -14 l28 -12 -26 -57 c-47 -107 -104 -242 -104 -248 0
-3 13 -11 29 -16 l29 -10 -64 -147 c-35 -81 -64 -152 -64 -158 0 -6 12 -16 26
-23 18 -8 24 -17 20 -27 -3 -9 -86 -200 -184 -425 -172 -399 -178 -410 -202
-404 -13 4 -29 7 -34 8 -4 1 -44 -79 -87 -178 -47 -108 -84 -179 -91 -178 -7
1 -22 5 -33 8 -18 5 -25 -6 -59 -85 -31 -71 -43 -89 -55 -84 -44 18 -48 16
-72 -41 -24 -57 -27 -58 -77 -44 -9 3 -30 -33 -61 -103 -37 -86 -50 -105 -61
-98 -26 17 -46 11 -59 -16 -8 -19 -16 -24 -29 -19 -44 18 -49 16 -73 -29 -14
-27 -29 -44 -36 -41 -7 3 -19 7 -26 10 -9 4 -23 -14 -41 -55 -22 -49 -31 -60
-44 -55 -44 18 -51 17 -58 -9 -7 -28 -23 -32 -55 -15 -18 9 -22 6 -32 -20 -11
-31 -15 -32 -65 -13 -8 3 -22 -18 -39 -56 l-26 -61 -28 15 -29 14 -27 -57
c-15 -32 -29 -60 -30 -62 -1 -2 -30 8 -63 22 l-61 27 -26 -60 c-27 -63 -27
-63 -79 -43 -6 2 -17 -9 -24 -26 -10 -26 -15 -29 -37 -20 -35 13 -38 12 -51
-17 -12 -25 -18 -26 -67 -7 -6 2 -16 -10 -22 -27 -12 -31 -12 -31 -43 -15
l-30 16 -19 -43 c-10 -24 -28 -66 -41 -95 l-22 -52 -29 14 c-27 15 -29 14 -44
-14 -14 -28 -17 -29 -46 -19 -16 6 -31 9 -33 7 -1 -2 -19 -43 -40 -91 -34 -77
-41 -86 -57 -78 -36 20 -46 10 -84 -79 -34 -80 -41 -89 -57 -80 -11 6 -26 9
-34 7 -9 -2 -76 -144 -174 -368 l-159 -365 27 -14 c15 -7 28 -15 30 -16 2 -1
-9 -28 -23 -60 -14 -32 -25 -59 -25 -60 0 -1 13 -8 30 -15 17 -7 30 -13 30
-14 0 -1 -18 -42 -40 -91 l-39 -90 27 -14 c15 -7 28 -15 30 -16 2 -1 -9 -28
-23 -60 -14 -32 -25 -59 -25 -62 0 -2 13 -9 29 -14 27 -9 29 -13 20 -35 -14
-39 -12 -42 37 -64 62 -27 80 -26 88 6 5 19 11 24 24 19 46 -19 52 -18 67 19
9 20 27 61 40 92 l24 55 30 -16 31 -15 16 37 c9 21 20 48 25 61 9 23 16 24 64
5 6 -2 22 24 37 58 24 54 29 59 47 50 30 -16 40 -13 53 15 11 25 20 26 59 10
12 -5 22 7 43 54 15 33 29 60 31 60 3 0 30 -11 61 -25 31 -14 58 -25 59 -25 1
0 13 27 26 60 13 33 27 60 32 60 4 0 21 -7 37 -15 70 -36 79 -37 95 -5 l15 30
57 -26 c54 -23 58 -24 70 -8 11 15 17 16 39 5 15 -6 28 -10 29 -9 1 2 9 15 16
30 l14 27 54 -24 c29 -14 56 -25 61 -25 4 0 13 13 20 29 l12 29 54 -24 c68
-30 72 -30 84 1 12 31 15 31 82 0 l53 -25 13 30 c6 17 14 30 16 30 2 0 57 -23
122 -51 109 -46 119 -49 131 -33 7 9 14 22 16 28 2 7 33 -1 83 -22 43 -19 84
-36 91 -39 6 -2 19 9 27 26 15 28 18 30 42 19 22 -10 28 -9 40 6 7 11 15 24
17 30 2 6 26 0 63 -16 l59 -27 14 27 c7 15 15 28 16 30 1 2 28 -9 60 -23 56
-25 75 -25 75 -2 1 35 16 38 74 11 31 -14 59 -24 60 -23 2 2 10 16 17 31 l14
27 41 -18 c76 -34 80 -34 94 -2 l12 29 54 -24 c68 -30 72 -30 84 2 10 26 18
27 61 10 12 -5 19 1 27 24 l11 31 38 -17 c49 -20 83 -34 87 -34 2 0 9 13 16
30 12 29 13 29 41 15 28 -15 29 -14 44 16 11 20 21 29 31 25 8 -3 21 -9 29
-12 9 -4 19 3 26 20 13 28 29 32 60 15 17 -9 21 -6 30 21 11 31 15 32 67 13 7
-3 17 7 23 25 10 30 11 30 44 16 33 -13 33 -13 44 17 8 24 15 30 28 24 44 -18
50 -16 63 14 12 30 13 30 41 16 28 -15 29 -14 44 16 11 20 21 29 31 25 8 -3
21 -9 29 -12 9 -4 19 3 26 20 13 28 29 32 60 15 17 -9 21 -6 30 21 11 31 15
32 67 13 7 -3 17 7 23 25 10 30 11 30 44 17 32 -14 33 -14 45 16 9 22 17 28
29 23 39 -16 48 -15 59 10 13 28 23 31 53 15 18 -9 22 -6 32 20 11 31 16 32
64 14 8 -3 23 19 39 56 23 52 29 59 45 51 29 -16 45 -12 58 16 8 19 16 24 29
19 41 -17 47 -16 59 15 12 31 12 31 42 15 l31 -16 27 61 c26 62 30 64 74 46
12 -5 22 8 41 54 26 58 27 60 53 50 39 -15 38 -15 64 49 l23 59 33 -14 32 -13
26 61 c27 62 25 61 74 41 6 -2 19 9 28 26 15 30 16 31 44 16 28 -14 29 -14 41
16 13 30 19 32 62 14 14 -5 21 2 34 34 15 39 18 41 48 36 l32 -6 49 105 c38
81 54 105 65 100 45 -19 46 -18 100 106 42 96 57 120 69 114 40 -16 48 -15 59
11 9 19 18 26 30 22 9 -2 23 -6 31 -8 10 -3 34 39 77 136 35 77 65 145 67 150
2 7 15 6 35 -1 l31 -12 38 89 c35 83 40 89 63 83 13 -3 29 -6 33 -7 5 -1 32
51 61 116 45 103 53 117 71 112 11 -4 26 -7 33 -8 11 -2 117 222 165 346 6 16
9 17 37 2 l30 -16 19 43 c10 24 87 201 171 393 84 193 154 356 157 363 3 7 -8
18 -25 25 l-31 13 55 124 c30 69 64 153 75 188 11 34 24 62 28 62 3 0 12 14
18 31 11 28 10 31 -15 42 -15 6 -28 12 -30 13 -2 1 9 27 23 59 14 32 25 59 25
61 0 2 -14 11 -30 19 -17 9 -28 20 -25 24 2 5 20 45 40 90 l34 81 -29 15 -30
15 25 56 c14 31 25 58 25 60 0 2 -13 10 -29 19 l-30 15 25 55 c27 63 29 75 12
75 -33 1 -40 16 -24 48 21 40 21 37 -14 52 -27 11 -30 16 -25 41 6 24 2 31
-20 41 -26 11 -27 19 -11 59 5 12 -1 20 -24 29 -23 9 -29 17 -24 29 16 40 15
47 -11 59 -19 9 -26 18 -22 30 2 9 6 23 8 31 2 8 -8 21 -23 28 -24 12 -26 17
-18 39 15 38 14 39 -46 63 -56 24 -58 27 -40 72 5 12 -1 20 -24 29 -23 9 -29
17 -24 29 18 45 16 48 -40 72 -57 23 -64 35 -46 70 10 17 4 22 -50 46 -52 22
-60 29 -54 47 10 32 20 39 42 27 31 -16 41 -14 48 14 7 27 24 31 54 15 16 -9
22 -5 35 19 19 39 20 36 -16 51 -22 9 -28 17 -23 29 18 44 16 48 -40 71 -60
24 -61 25 -46 65 9 24 7 27 -21 37 -22 8 -28 15 -23 27 18 42 10 51 -76 90
-56 25 -84 43 -81 52 13 48 9 51 -141 117 -143 63 -146 65 -137 89 5 13 9 28
9 33 0 4 -40 25 -89 46 l-89 37 14 32 13 31 -124 54 -124 53 14 27 c15 30 10
40 -29 54 -12 4 -16 11 -11 24 18 44 17 51 -9 58 -28 7 -32 23 -16 55 9 16 6
21 -17 31 -15 7 -29 13 -31 14 -2 1 9 27 23 59 31 71 31 71 0 79 -30 8 -31 24
-5 76 26 51 25 67 -5 74 -14 4 -25 10 -25 15 0 5 16 46 35 91 19 45 35 86 35
91 0 5 -11 11 -25 15 -14 3 -25 11 -25 16 0 6 16 46 35 91 19 44 35 84 35 88
0 4 -13 12 -30 17 l-29 11 24 56 c30 67 30 72 6 80 -18 5 -17 12 21 98 37 85
38 92 22 104 -10 7 -21 13 -26 13 -15 0 -8 21 41 136 l49 114 -29 15 c-33 18
-37 -2 36 168 39 90 40 92 86 73 12 -5 22 7 43 55 21 49 30 60 44 54 44 -18
47 -16 72 44 l25 59 31 -13 c31 -13 33 -12 44 16 13 30 17 30 66 12 6 -2 17
10 24 26 7 17 14 31 15 31 1 0 37 -16 79 -35 92 -42 104 -43 112 -10 3 14 10
25 15 25 4 0 44 -16 88 -35 81 -36 101 -41 101 -27 0 5 6 16 13 26 13 17 24
14 192 -59 166 -72 180 -76 191 -60 7 10 15 22 17 28 2 7 13 7 34 0 l31 -11
66 151 c36 83 65 151 63 152 -3 2 -721 313 -763 331 -28 12 -34 12 -34 1z
m-1789 -3377 c5 0 14 11 20 24 l11 23 176 -78 c119 -52 176 -81 173 -91 -2 -7
-6 -21 -8 -30 -3 -11 0 -18 8 -18 33 -1 40 -15 24 -53 l-15 -37 35 -14 c33
-14 34 -16 23 -42 -11 -22 -10 -28 6 -40 11 -7 24 -15 30 -17 7 -2 1 -26 -16
-65 l-26 -60 29 -12 c16 -7 29 -15 29 -18 0 -3 -28 -70 -62 -149 -60 -138 -63
-144 -87 -138 -14 4 -29 7 -34 8 -5 1 -18 -22 -30 -51 -22 -53 -26 -55 -67
-38 -11 5 -26 -17 -60 -89 -45 -97 -48 -99 -91 -81 -12 5 -20 -1 -29 -23 -10
-26 -15 -29 -37 -20 -36 14 -43 12 -53 -17 -6 -14 -16 -24 -23 -21 -52 19 -51
19 -76 -43 -19 -47 -28 -59 -40 -54 -44 18 -51 16 -62 -15 -11 -30 -11 -30
-44 -17 l-33 14 -26 -60 c-19 -45 -29 -59 -41 -54 -8 3 -22 9 -30 12 -9 4 -19
-3 -26 -20 -13 -28 -29 -32 -60 -15 -17 9 -21 6 -31 -21 -11 -32 -17 -33 -61
-15 -13 6 -20 0 -28 -23 -10 -30 -11 -30 -44 -17 -32 14 -33 14 -45 -15 -12
-28 -7 -50 9 -50 5 0 43 -16 85 -35 75 -34 76 -35 64 -61 -11 -22 -10 -28 6
-40 11 -7 24 -15 29 -17 7 -2 -4 -38 -25 -88 -38 -85 -47 -93 -89 -75 -13 6
-24 -12 -54 -84 -40 -95 -38 -93 -91 -73 -7 2 -28 -35 -50 -86 -22 -50 -43
-89 -49 -87 -53 18 -55 18 -68 -12 l-12 -30 -85 39 c-48 21 -84 44 -83 51 1 7
5 23 8 34 5 17 1 23 -24 32 l-30 11 27 62 c17 40 23 64 16 66 -6 2 -19 10 -29
17 -16 12 -15 18 19 96 20 46 36 87 36 91 0 4 -13 12 -29 17 l-29 10 65 152
c53 121 69 150 82 144 42 -17 48 -15 61 17 9 22 10 34 3 36 -5 2 -18 10 -29
17 -15 12 -16 18 -6 40 10 24 9 27 -18 41 -32 16 -32 13 4 97 20 48 21 44 -15
57 -17 6 -28 14 -26 18 3 5 58 130 122 278 245 568 248 574 267 564 33 -18 47
-9 72 47 19 41 30 55 41 50 8 -3 21 -9 29 -12 10 -4 20 5 31 25 13 26 19 30
35 21 29 -15 39 -12 52 16 12 25 19 26 61 9 13 -6 20 0 28 23 9 28 13 30 35
21 37 -14 44 -12 54 17 7 17 15 24 25 20 8 -3 22 -9 30 -12 11 -4 20 5 30 30
l15 36 56 -25 c31 -14 61 -25 65 -25z m-1932 -3940 c4 0 13 12 19 26 10 20 17
24 35 19 29 -9 277 -117 277 -121 0 -1 -22 -54 -50 -116 -29 -66 -55 -112 -62
-111 -7 1 -22 5 -34 8 -17 5 -24 -2 -47 -55 -23 -55 -28 -60 -46 -51 -30 16
-40 13 -53 -15 -11 -25 -20 -26 -59 -10 -12 5 -20 -1 -29 -24 -9 -23 -17 -29
-29 -24 -43 17 -51 16 -61 -11 -11 -29 -23 -29 -92 6 -42 21 -39 23 -75 -55
-18 -38 -27 -47 -41 -41 -9 4 -23 9 -30 12 -8 3 -22 -16 -39 -55 -24 -57 -27
-60 -50 -51 -37 14 -43 11 -54 -21 -11 -29 -12 -29 -39 -15 -33 17 -36 14 -65
-55 -10 -25 -20 -46 -21 -48 -1 -3 -25 6 -86 32 l-37 16 -16 -29 -15 -30 -57
25 c-53 24 -58 24 -70 8 -7 -9 -14 -22 -16 -28 -3 -8 -12 -8 -35 0 -29 11 -31
10 -42 -17 -15 -34 -15 -35 -75 -9 -56 24 -75 25 -75 5 0 -14 -3 -14 -30 0
-38 20 -36 20 -48 -15 -10 -27 -13 -29 -37 -20 -38 14 -44 13 -51 -15 -7 -30
-16 -31 -73 -5 -56 26 -65 25 -79 -5 -13 -27 -23 -30 -52 -15 -16 9 -22 5 -35
-20 -14 -27 -17 -29 -41 -18 -22 10 -28 9 -40 -6 -7 -11 -15 -23 -17 -29 -2
-7 -14 -7 -36 1 -31 11 -33 10 -43 -18 -8 -25 -13 -28 -28 -20 -31 17 -50 11
-60 -16 -8 -19 -15 -24 -28 -19 -45 19 -48 17 -74 -44 -26 -60 -27 -61 -54
-50 -28 10 -45 0 -57 -34 -3 -11 -117 31 -117 43 0 3 6 15 14 25 12 17 17 18
41 7 15 -7 28 -11 29 -10 2 2 20 44 42 94 l39 92 27 -14 c15 -8 29 -14 31 -14
2 0 21 41 42 90 30 72 41 90 54 84 44 -18 51 -16 62 14 9 28 13 30 35 21 37
-14 44 -12 54 17 6 14 16 24 23 21 53 -20 53 -20 80 43 23 55 28 60 46 51 30
-16 40 -13 53 15 12 25 19 26 61 9 13 -6 20 0 28 24 9 24 16 30 28 25 44 -18
51 -17 62 15 11 30 11 30 39 16 38 -19 36 -20 48 15 10 27 13 29 37 20 37 -14
40 -13 54 16 8 19 16 24 29 19 9 -4 22 -9 29 -12 6 -2 19 9 27 26 15 28 18 30
42 19 22 -10 28 -9 39 6 11 14 17 15 34 7 29 -16 37 -14 50 15 11 26 20 27 62
10 12 -5 21 7 40 54 13 33 28 59 34 57 49 -19 55 -18 67 8 6 14 16 24 22 22
49 -18 53 -18 66 13 7 17 18 29 24 27 6 -3 48 -21 93 -40 l81 -35 13 29 c8 22
16 28 28 23 47 -19 47 -19 101 106 42 96 57 120 69 114 41 -17 48 -15 60 14
l13 30 54 -24 c30 -13 58 -24 63 -24z"/>
</g>
</svg>
